<svg width="40" height="32" viewBox="0 0 40 32" fill="none" xmlns="http://www.w3.org/2000/svg">
<path d="M0.5 0.988458C0.5 0.988458 2.38469 0.976522 4.35416 0.988462C5.85529 0.997563 7.40567 0.963369 8.20832 1.29538C9.07928 1.65565 9.34846 6.73416 9.77853 11.5814C10.2648 17.0619 10.2068 21.5291 11.777 22.2967C12.4312 22.6165 14.3622 22.6007 16.0594 22.6194C18.4355 22.6456 20.6273 22.6194 20.6273 22.6194H27.4077L29.1921 22.6194C29.1921 22.6194 31.0298 22.5945 31.9043 22.6194C32.6833 22.6416 33.4745 22.6194 33.9027 22.6194C34.331 22.6194 35.1874 19.5646 35.1874 19.5646L37.3286 13.4237L38.7561 8.97153C39.1523 8.01272 37.8 8.29115 33.9027 8.24353C32.1837 8.22252 30.0252 8.22768 27.4077 8.20391C24.4831 8.17735 20.6273 8.20391 16.6304 8.20391" stroke="white" stroke-width="1.5"/>
<path d="M14.1674 30.0043C14.1674 30.7447 13.6219 31.2501 13.0617 31.2501C12.5015 31.2501 11.956 30.7447 11.956 30.0043C11.956 29.264 12.5015 28.7585 13.0617 28.7585C13.6219 28.7585 14.1674 29.264 14.1674 30.0043Z" stroke="white" stroke-width="1.5"/>
<path d="M31.868 30.0043C31.868 30.7447 31.3225 31.2501 30.7623 31.2501C30.2021 31.2501 29.6566 30.7447 29.6566 30.0043C29.6566 29.264 30.2021 28.7585 30.7623 28.7585C31.3225 28.7585 31.868 29.264 31.868 30.0043Z" stroke="white" stroke-width="1.5"/>
</svg>
