<svg width="25" height="25" viewBox="0 0 25 25" fill="none" xmlns="http://www.w3.org/2000/svg">
<path d="M12.1094 0C5.41992 0 0 5.41992 0 12.1094C0 18.7988 5.41992 24.2188 12.1094 24.2188C18.7988 24.2188 24.2188 18.7988 24.2188 12.1094C24.2188 5.41992 18.7988 0 12.1094 0ZM21.875 12.1094C21.875 13.208 21.6846 14.2676 21.3477 15.2539H20.3564C20.1465 15.2539 19.9463 15.1709 19.7998 15.0195L18.2373 13.4277C18.0176 13.2031 18.0176 12.8369 18.2422 12.6123L18.8525 12.002V11.5771C18.8525 11.4307 18.7939 11.2891 18.6914 11.1865L18.2324 10.7275C18.1299 10.625 17.9883 10.5664 17.8418 10.5664H17.0605C16.7578 10.5664 16.5088 10.3174 16.5088 10.0146C16.5088 9.86816 16.5674 9.72656 16.6699 9.62402L17.1289 9.16504C17.2314 9.0625 17.373 9.00391 17.5195 9.00391H19.082C19.3848 9.00391 19.6338 8.75488 19.6338 8.45215V7.99316C19.6338 7.69043 19.3848 7.44141 19.082 7.44141H17.29C16.8604 7.44141 16.5088 7.79297 16.5088 8.22266V8.44238C16.5088 8.7793 16.2939 9.07715 15.9766 9.18457L14.4336 9.69727C14.2725 9.75098 14.165 9.89746 14.165 10.0684V10.1758C14.165 10.3906 13.9893 10.5664 13.7744 10.5664H12.9932C12.7783 10.5664 12.6025 10.3906 12.6025 10.1758C12.6025 9.96094 12.4268 9.78516 12.2119 9.78516H12.0605C11.9141 9.78516 11.7773 9.86816 11.709 10L11.25 10.9131C11.1182 11.1768 10.8496 11.3428 10.5518 11.3428H9.47266C9.04297 11.3428 8.69141 10.9912 8.69141 10.5615V9.32617C8.69141 9.12109 8.77441 8.9209 8.9209 8.77441L9.90234 7.79297C10.127 7.56836 10.2539 7.26074 10.2539 6.93848C10.2539 6.77246 10.3613 6.62109 10.5225 6.56738L12.4756 5.91797C12.5586 5.88867 12.6318 5.84473 12.6904 5.78613L13.999 4.47754C14.1016 4.375 14.1602 4.2334 14.1602 4.08691C14.1602 3.78418 13.9111 3.53516 13.6084 3.53516H12.5977L11.8164 4.31641V4.70703C11.8164 4.92188 11.6406 5.09766 11.4258 5.09766H10.6445C10.4297 5.09766 10.2539 4.92188 10.2539 4.70703V3.73047C10.2539 3.6084 10.3125 3.49121 10.4102 3.41797L11.8213 2.3584C11.9141 2.35352 12.0068 2.34375 12.0996 2.34375C17.4951 2.34375 21.875 6.72363 21.875 12.1094ZM6.35254 6.88965C6.35254 6.74316 6.41113 6.60156 6.51367 6.49902L7.75391 5.25879C7.85645 5.15625 7.99805 5.09766 8.14453 5.09766C8.44727 5.09766 8.69629 5.34668 8.69629 5.64941V6.43066C8.69629 6.57715 8.6377 6.71875 8.53516 6.82129L8.07617 7.28027C7.97363 7.38281 7.83203 7.44141 7.68555 7.44141H6.9043C6.60156 7.44141 6.35254 7.19238 6.35254 6.88965ZM12.6025 21.8506V21.5039C12.6025 21.0742 12.251 20.7227 11.8213 20.7227H10.835C10.3076 20.7227 9.53125 20.4639 9.10645 20.1465L8.02246 19.3311C7.46094 18.9111 7.13379 18.252 7.13379 17.5537V16.3867C7.13379 15.6055 7.54395 14.8828 8.21289 14.4824L10.3076 13.2275C10.6543 13.0225 11.0498 12.9102 11.4502 12.9102H12.9736C13.5059 12.9102 14.0186 13.1006 14.4189 13.4424L16.5283 15.2539H17.4219C17.8369 15.2539 18.2324 15.4199 18.5254 15.7129L19.3701 16.5576C19.5361 16.7236 19.7656 16.8164 20 16.8164H20.6543C19.0723 19.6924 16.0742 21.6748 12.6025 21.8506Z" fill="white"/>
</svg>
