<svg width="31" height="34" viewBox="0 0 31 34" fill="none" xmlns="http://www.w3.org/2000/svg">
<g filter="url(#filter0_d_61_3)">
<path d="M22.5938 13H23.0938V12.5V8.24171C23.0938 7.41376 23.7728 6.73491 24.5755 6.75026C25.3647 6.76537 26 7.4101 26 8.20311L26 13.5C26 13.8351 25.9189 15.0101 25.814 16.2138C25.762 16.8098 25.7051 17.4033 25.651 17.8902C25.5955 18.3903 25.5464 18.7447 25.5133 18.8855L25.5114 18.8937L25.5097 18.9019L25.0153 21.3741L24.4804 23.0402L24.4743 23.0592L24.4698 23.0786C24.2903 23.8414 23.5868 24.2671 22.5584 24.5138C22.3517 24.5634 21.7392 24.6113 20.85 24.6439C19.9865 24.6755 18.9198 24.6914 17.8509 24.6914C16.7821 24.6914 15.7154 24.6755 14.8519 24.6439C13.9628 24.6113 13.3503 24.5634 13.1437 24.5138C12.5963 24.3825 12.3934 24.3567 12.2792 24.3431C12.2784 24.343 12.2776 24.3429 12.2769 24.3429C12.2627 24.3358 12.2367 24.3228 12.1904 24.2992C11.9313 24.1673 11.707 23.9759 11.536 23.7407L5.40313 15.3078C5.40312 15.3078 5.40312 15.3078 5.40312 15.3078C4.93111 14.6587 5.0746 13.75 5.72358 13.2779C6.37271 12.8059 7.28149 12.9494 7.7535 13.5984C7.7535 13.5984 7.7535 13.5984 7.7535 13.5984L9.29881 15.7234L10.2032 16.967V15.4293V3.90626C10.2032 3.11322 10.8385 2.46849 11.6277 2.45339C12.4304 2.43803 13.1094 3.11689 13.1094 3.94483V12.5V13H13.6094H14.0001H14.5001V12.5V1.95314C14.5001 1.1601 15.1354 0.515369 15.9246 0.50026C16.7273 0.484905 17.4063 1.16376 17.4063 1.99171V12.5V13H17.9063H18.2969H18.7969V12.5V3.85743C18.7969 3.06439 19.4323 2.41967 20.2215 2.40456C21.0242 2.3892 21.7032 3.06806 21.7032 3.89601V12.5V13H22.2032H22.5938Z" stroke="white" shape-rendering="crispEdges"/>
</g>
<defs>
<filter id="filter0_d_61_3" x="0.625061" y="0" width="29.8749" height="33.1914" filterUnits="userSpaceOnUse" color-interpolation-filters="sRGB">
<feFlood flood-opacity="0" result="BackgroundImageFix"/>
<feColorMatrix in="SourceAlpha" type="matrix" values="0 0 0 0 0 0 0 0 0 0 0 0 0 0 0 0 0 0 127 0" result="hardAlpha"/>
<feOffset dy="4"/>
<feGaussianBlur stdDeviation="2"/>
<feComposite in2="hardAlpha" operator="out"/>
<feColorMatrix type="matrix" values="0 0 0 0 0 0 0 0 0 0 0 0 0 0 0 0 0 0 0.25 0"/>
<feBlend mode="normal" in2="BackgroundImageFix" result="effect1_dropShadow_61_3"/>
<feBlend mode="normal" in="SourceGraphic" in2="effect1_dropShadow_61_3" result="shape"/>
</filter>
</defs>
</svg>
