<svg width="32" height="41" viewBox="0 0 32 41" fill="none" xmlns="http://www.w3.org/2000/svg">
<g filter="url(#filter0_d_593_30)">
<path d="M14.5612 36.2535C3.96656 21.0315 2 19.4693 2 13.875C2 6.21202 8.26799 0 16 0C23.732 0 30 6.21202 30 13.875C30 19.4693 28.0334 21.0315 17.4388 36.2535C16.7435 37.2489 15.2564 37.2488 14.5612 36.2535ZM16 19.6562C19.2217 19.6562 21.8333 17.0679 21.8333 13.875C21.8333 10.6821 19.2217 8.09375 16 8.09375C12.7783 8.09375 10.1667 10.6821 10.1667 13.875C10.1667 17.0679 12.7783 19.6562 16 19.6562Z" fill="black"/>
<path d="M16 25C22.0751 25 27 20.0751 27 14C27 7.92487 22.0751 3 16 3C9.92487 3 5 7.92487 5 14C5 20.0751 9.92487 25 16 25Z" fill="black" stroke="white" stroke-width="2" stroke-miterlimit="10"/>
<path d="M22 5.52919L10 23C10 23 13.1141 18.7814 13.1141 14.1966C13.1141 9.61174 10.5749 5 10.5749 5" fill="black"/>
<path d="M22 5.52919L10 23C10 23 13.1141 18.7814 13.1141 14.1966C13.1141 9.61174 10.5749 5 10.5749 5" stroke="white" stroke-width="2" stroke-miterlimit="10"/>
<path d="M17 13C17 13 22 16.2216 22 23Z" fill="black"/>
<path d="M17 13C17 13 22 16.2216 22 23" stroke="white" stroke-width="2" stroke-miterlimit="10"/>
</g>
<defs>
<filter id="filter0_d_593_30" x="0" y="0" width="32" height="41" filterUnits="userSpaceOnUse" color-interpolation-filters="sRGB">
<feFlood flood-opacity="0" result="BackgroundImageFix"/>
<feColorMatrix in="SourceAlpha" type="matrix" values="0 0 0 0 0 0 0 0 0 0 0 0 0 0 0 0 0 0 127 0" result="hardAlpha"/>
<feOffset dy="2"/>
<feGaussianBlur stdDeviation="1"/>
<feComposite in2="hardAlpha" operator="out"/>
<feColorMatrix type="matrix" values="0 0 0 0 0 0 0 0 0 0 0 0 0 0 0 0 0 0 0.25 0"/>
<feBlend mode="normal" in2="BackgroundImageFix" result="effect1_dropShadow_593_30"/>
<feBlend mode="normal" in="SourceGraphic" in2="effect1_dropShadow_593_30" result="shape"/>
</filter>
</defs>
</svg>
