<svg width="19" height="25" viewBox="0 0 19 25" fill="none" xmlns="http://www.w3.org/2000/svg">
<path d="M9.96094 0C4.95117 0 0 3.33984 0 8.74512C0 12.1826 1.93359 14.1357 3.10547 14.1357C3.58887 14.1357 3.86719 12.7881 3.86719 12.4072C3.86719 11.9531 2.70996 10.9863 2.70996 9.09668C2.70996 5.1709 5.69824 2.3877 9.56543 2.3877C12.8906 2.3877 15.3516 4.27734 15.3516 7.74902C15.3516 10.3418 14.3115 15.2051 10.9424 15.2051C9.72656 15.2051 8.68652 14.3262 8.68652 13.0664C8.68652 11.2207 9.97559 9.43359 9.97559 7.5293C9.97559 4.29688 5.39063 4.88281 5.39063 8.78906C5.39063 9.60937 5.49316 10.5176 5.85938 11.2646C5.18555 14.165 3.80859 18.4863 3.80859 21.4746C3.80859 22.3975 3.94043 23.3057 4.02832 24.2285C4.19434 24.4141 4.11133 24.3945 4.36523 24.3018C6.82617 20.9326 6.73828 20.2734 7.85156 15.8643C8.45215 17.0068 10.0049 17.6221 11.2354 17.6221C16.4209 17.6221 18.75 12.5684 18.75 8.0127C18.75 3.16406 14.5605 0 9.96094 0Z" fill="white"/>
</svg>
