<svg width="21" height="25" viewBox="0 0 21 25" fill="none" xmlns="http://www.w3.org/2000/svg">
<path d="M8.66959 5.30378L9.09375 5.23869V4.80957V3.125V2.625H8.59375H7.22656C7.18044 2.625 7.14062 2.58519 7.14062 2.53906V0.585938C7.14062 0.539814 7.18044 0.5 7.22656 0.5H13.0859C13.1321 0.5 13.1719 0.539814 13.1719 0.585938V2.53906C13.1719 2.58519 13.1321 2.625 13.0859 2.625H11.7188H11.2188V3.125V4.80957V5.23818L11.6423 5.3037C13.3827 5.57287 14.9699 6.30607 16.2695 7.37367L16.6199 7.66145L16.9405 7.34086L18.2832 5.99808C18.3175 5.96385 18.372 5.96385 18.4062 5.99808L19.788 7.37992C19.8223 7.41415 19.8223 7.46866 19.788 7.50289L18.3525 8.93844L18.3232 8.96774L18.0359 9.25505L18.2584 9.59505C19.2414 11.0974 19.8125 12.902 19.8125 14.8438C19.8125 20.178 15.4905 24.5 10.1562 24.5C4.82204 24.5 0.5 20.178 0.5 14.8438C0.5 10.0158 4.04209 6.01392 8.66959 5.30378ZM12.2188 16.6016V9.2041C12.2188 8.60569 11.7312 8.11816 11.1328 8.11816H9.17969C8.58128 8.11816 8.09375 8.60569 8.09375 9.2041V16.6016C8.09375 17.2 8.58128 17.6875 9.17969 17.6875H11.1328C11.7312 17.6875 12.2188 17.2 12.2188 16.6016Z" stroke="white"/>
</svg>
