<svg width="25" height="20" viewBox="0 0 25 20" fill="none" xmlns="http://www.w3.org/2000/svg">
<path d="M18.0556 6.94444C18.0556 3.10764 14.0148 0 9.02778 0C4.0408 0 0 3.10764 0 6.94444C0 8.43316 0.611979 9.80469 1.64931 10.9375C1.06771 12.2483 0.108507 13.2899 0.0954861 13.3029C0 13.4028 -0.0260417 13.5503 0.0303819 13.6806C0.0868056 13.8108 0.208333 13.8889 0.347222 13.8889C1.93576 13.8889 3.25087 13.355 4.19705 12.8038C5.59462 13.4852 7.24826 13.8889 9.02778 13.8889C14.0148 13.8889 18.0556 10.7812 18.0556 6.94444ZM23.3507 16.4931C24.388 15.3646 25 13.9887 25 12.5C25 9.59635 22.678 7.10937 19.388 6.07205C19.4271 6.35851 19.4444 6.6493 19.4444 6.94444C19.4444 11.5408 14.77 15.2778 9.02778 15.2778C8.55903 15.2778 8.1033 15.2431 7.65191 15.1953C9.0191 17.691 12.2309 19.4444 15.9722 19.4444C17.7517 19.4444 19.4054 19.0451 20.8029 18.3594C21.7491 18.9106 23.0642 19.4444 24.6528 19.4444C24.7917 19.4444 24.9175 19.362 24.9696 19.2361C25.026 19.1102 25 18.9627 24.9045 18.8585C24.8915 18.8455 23.9323 17.8082 23.3507 16.4931Z" fill="#FF9D00" fill-opacity="0.815686"/>
</svg>
