<svg width="25" height="25" viewBox="0 0 25 25" fill="none" xmlns="http://www.w3.org/2000/svg">
<path d="M12.1094 0C5.42139 0 0 5.42139 0 12.1094C0 18.7974 5.42139 24.2188 12.1094 24.2188C18.7974 24.2188 24.2188 18.7974 24.2188 12.1094C24.2188 5.42139 18.7974 0 12.1094 0ZM16.1274 17.4609C15.937 17.6504 15.7373 17.8491 15.5752 18.0117C15.4292 18.1582 15.3262 18.3389 15.2739 18.5347C15.2002 18.811 15.1406 19.0903 15.041 19.3584L14.1919 21.646C13.52 21.7925 12.8247 21.875 12.1094 21.875V20.5381C12.1919 19.9219 11.7363 18.7676 11.0044 18.0356C10.7114 17.7427 10.5469 17.3452 10.5469 16.9307V15.3677C10.5469 14.7993 10.2407 14.2769 9.74316 14.002C9.0415 13.6138 8.04346 13.0713 7.35986 12.7271C6.79932 12.4448 6.28076 12.0854 5.81445 11.665L5.77539 11.6299C5.44193 11.3289 5.14586 10.9889 4.89355 10.6172C4.43555 9.94482 3.68945 8.83887 3.20459 8.12012C4.2041 5.89844 6.00537 4.11426 8.24365 3.14502L9.41602 3.73145C9.93555 3.99121 10.5469 3.61377 10.5469 3.03271V2.48096C10.937 2.41797 11.334 2.37793 11.7378 2.36279L13.1196 3.74463C13.4248 4.0498 13.4248 4.54443 13.1196 4.84961L12.8906 5.07812L12.3857 5.58301C12.2334 5.73535 12.2334 5.98291 12.3857 6.13525L12.6147 6.36426C12.7671 6.5166 12.7671 6.76416 12.6147 6.9165L12.2241 7.30713C12.1508 7.38033 12.0514 7.42143 11.9478 7.42139H11.5088C11.4072 7.42139 11.3096 7.46094 11.2363 7.53223L10.752 8.00342C10.6926 8.06124 10.6531 8.13642 10.6392 8.21813C10.6254 8.29984 10.6378 8.38384 10.6748 8.45801L11.436 9.98096C11.5659 10.2407 11.377 10.5464 11.0869 10.5464H10.8115C10.7173 10.5464 10.6265 10.5122 10.5557 10.4507L10.1025 10.0571C10 9.96817 9.87607 9.90744 9.74294 9.8809C9.60982 9.85436 9.47207 9.86293 9.34326 9.90576L7.82129 10.4131C7.70509 10.4518 7.60403 10.5262 7.53243 10.6255C7.46084 10.7249 7.42233 10.8443 7.42236 10.9668C7.42236 11.188 7.54736 11.3896 7.74512 11.4888L8.28613 11.7593C8.74561 11.9893 9.25244 12.1089 9.76611 12.1089C10.2798 12.1089 10.8691 13.4414 11.3286 13.6714H14.5879C15.0024 13.6714 15.3994 13.8359 15.6929 14.1289L16.3613 14.7974C16.6406 15.0767 16.7974 15.4556 16.7974 15.8506C16.7973 16.1499 16.738 16.4462 16.6231 16.7226C16.5081 16.999 16.3397 17.2499 16.1274 17.4609ZM20.3613 13.0005C20.0786 12.9297 19.832 12.7563 19.6704 12.5137L18.7925 11.1968C18.664 11.0044 18.5955 10.7782 18.5955 10.5469C18.5955 10.3155 18.664 10.0894 18.7925 9.89697L19.749 8.4624C19.8623 8.29297 20.0176 8.15527 20.2002 8.06445L20.834 7.74756C21.4941 9.06201 21.875 10.5405 21.875 12.1094C21.875 12.5327 21.8389 12.9473 21.7861 13.3564L20.3613 13.0005Z" fill="#272343"/>
<path d="M14.1511 8V5.09091H15.9068V5.40341H14.5034V6.38636H15.8159V6.69886H14.5034V7.6875H15.9295V8H14.1511ZM18.8485 5.09091V8H18.5076L16.9224 5.71591H16.894V8H16.5417V5.09091H16.8826L18.4735 7.38068H18.502V5.09091H18.8485Z" fill="white"/>
</svg>
