<svg width="25" height="25" viewBox="0 0 25 25" fill="none" xmlns="http://www.w3.org/2000/svg">
<path d="M20.3125 6.25V1.5625C20.3125 0.699707 19.6128 0 18.75 0H1.5625C0.699707 0 0 0.699707 0 1.5625V6.25C0 7.11279 0.699707 7.8125 1.5625 7.8125H18.75C19.6128 7.8125 20.3125 7.11279 20.3125 6.25ZM21.875 3.125V9.375C21.875 10.2378 21.1753 10.9375 20.3125 10.9375H12.5C10.7739 10.9375 9.375 12.3364 9.375 14.0625V15.625C8.51221 15.625 7.8125 16.3247 7.8125 17.1875V23.4375C7.8125 24.3003 8.51221 25 9.375 25H12.5C13.3628 25 14.0625 24.3003 14.0625 23.4375V17.1875C14.0625 16.3247 13.3628 15.625 12.5 15.625V14.0625H20.3125C22.9014 14.0625 25 11.9639 25 9.375V6.25C25 4.52393 23.6011 3.125 21.875 3.125Z" fill="#272343"/>
</svg>
