<svg width="29" height="33" viewBox="0 0 29 33" fill="none" xmlns="http://www.w3.org/2000/svg">
<path d="M25.1625 5.79324C24.739 5.7689 24.3161 5.83321 23.9206 5.98084C23.8575 5.55952 23.7088 5.15453 23.4825 4.79128C23.2067 4.34868 22.8245 3.98215 22.3708 3.72511C21.9171 3.46806 21.4062 3.32868 20.8848 3.31967C20.4591 3.31231 20.0374 3.39207 19.6453 3.5529C19.5429 2.9122 19.2485 2.31498 18.7979 1.84202C18.2812 1.29979 17.5915 0.954907 16.8478 0.86686C16.104 0.778814 15.3528 0.95313 14.7239 1.35973C14.1629 1.7224 13.7304 2.24957 13.4838 2.86615C13.0464 2.64742 12.563 2.5327 12.0717 2.5325L12.071 2.5325C11.6503 2.53378 11.2339 2.61808 10.8458 2.78056C10.4577 2.94305 10.1055 3.18053 9.80939 3.47939C9.51326 3.77825 9.27901 4.13262 9.12009 4.52218C8.96123 4.91157 8.88075 5.32847 8.88326 5.749V16.7827C7.84777 15.4854 6.91695 14.3063 6.75628 14.0797C6.47327 13.632 6.08106 13.2636 5.6165 13.0091C5.15143 12.7543 4.62918 12.6222 4.09895 12.625C3.65092 12.6119 3.20494 12.6906 2.78839 12.8562C2.3707 13.0222 1.99146 13.272 1.67409 13.5903C1.35673 13.9086 1.10796 14.2885 0.94315 14.7067C0.778342 15.1249 0.700988 15.5724 0.715865 16.0216L0.715836 16.0216L0.716005 16.025C0.738578 16.4765 0.967319 17.1799 1.31072 18.0062C1.65793 18.8416 2.1343 19.8298 2.67379 20.8628C3.7527 22.9287 5.09026 25.1857 6.16759 26.7787C7.80444 29.2016 9.40935 30.596 10.6304 31.3858C11.2406 31.7806 11.7542 32.0239 12.1272 32.1691C12.3136 32.2417 12.4652 32.2899 12.5766 32.3203C12.6322 32.3355 12.6785 32.3464 12.7147 32.3537C12.744 32.3596 12.7827 32.3667 12.8141 32.3667H12.9791L22.4574 32.3667L22.4596 32.3667C22.6853 32.3642 22.9042 32.2886 23.0833 32.1512L23.0905 32.1457L23.0971 32.1396C24.7695 30.5983 25.9793 28.6215 26.5906 26.431C27.5159 23.5696 28.0015 19.4768 28.0474 13.945L28.0474 13.943L28.0383 8.85701C28.0383 8.85681 28.0383 8.8566 28.0383 8.85639C28.0412 8.33883 27.9124 7.82903 27.664 7.37495C27.4156 6.92068 27.0555 6.53714 26.6179 6.26043C26.1803 5.98371 25.6794 5.82294 25.1625 5.79324ZM24.6417 25.7973L24.6416 25.7973L24.6398 25.8034C24.1421 27.4903 23.2551 29.0362 22.0506 30.3167H13.0824C12.6235 30.1725 10.3243 29.2782 7.83738 25.5923C6.5595 23.6983 5.2985 21.4872 4.35138 19.6375C3.87786 18.7127 3.48393 17.8805 3.20607 17.2253C3.06706 16.8975 2.95803 16.6161 2.88271 16.3908C2.80581 16.1608 2.77005 16.0064 2.76556 15.9235C2.75945 15.7599 2.78756 15.5969 2.84811 15.4449C2.90882 15.2924 3.0008 15.1544 3.11811 15.0396L3.11815 15.0397L3.1217 15.036C3.23751 14.9168 3.37694 14.8231 3.53106 14.7609C3.68519 14.6988 3.8506 14.6694 4.0167 14.6749L4.02579 14.6752L4.03487 14.6747C4.24008 14.6627 4.44458 14.708 4.62562 14.8053C4.80665 14.9027 4.95711 15.0484 5.06026 15.2262L5.05986 15.2264L5.06744 15.2377C5.20602 15.4431 5.7541 16.1395 6.39665 16.9484C6.66208 17.2825 6.94492 17.6374 7.2245 17.9883C7.62651 18.4928 8.02179 18.9888 8.34888 19.4024L8.46392 19.5479L8.61764 19.4441L10.8451 17.9408L10.9333 17.8813V17.775V5.74833V5.74011L10.9326 5.73191C10.9194 5.57255 10.9395 5.41219 10.9915 5.26097C11.0434 5.10975 11.1262 4.97095 11.2345 4.85333L11.0874 4.71784L11.2345 4.85333C11.3429 4.73571 11.4744 4.64183 11.6208 4.57761C11.7673 4.5134 11.9254 4.48024 12.0853 4.48024C12.2452 4.48024 12.4034 4.5134 12.5498 4.57761C12.6963 4.64183 12.8278 4.73571 12.9361 4.85333C13.0445 4.97095 13.1272 5.10975 13.1792 5.26097C13.2312 5.41219 13.2512 5.57255 13.2381 5.73191L13.2374 5.74011V5.74833V15.96V16.16H13.4374H15.0874H15.2874V15.96V4.05531C15.323 3.77097 15.4605 3.50904 15.6747 3.31824C15.8916 3.12499 16.1719 3.0182 16.4624 3.0182C16.7529 3.0182 17.0333 3.12499 17.2502 3.31824C17.4643 3.50904 17.6018 3.77097 17.6374 4.0553V16.0792V16.2792H17.8374H19.4874H19.6874V16.0792V6.5V6.49163L19.6867 6.48329C19.6739 6.33013 19.693 6.17597 19.7428 6.03056C19.7926 5.88515 19.872 5.75166 19.976 5.63853C20.0801 5.5254 20.2065 5.43509 20.3472 5.37331C20.4879 5.31154 20.64 5.27964 20.7937 5.27964C20.9474 5.27964 21.0994 5.31154 21.2401 5.37332C21.3809 5.43509 21.5073 5.5254 21.6113 5.63853C21.7153 5.75166 21.7948 5.88515 21.8446 6.03056C21.8944 6.17597 21.9135 6.33013 21.9006 6.48329L21.8999 6.49163V6.5V16.9867V17.1867H22.0999H23.7499H23.9499V16.9867V8.83739C23.9738 8.58647 24.0898 8.35319 24.2758 8.18272C24.4637 8.01039 24.7095 7.91478 24.9645 7.91478C25.2195 7.91478 25.4653 8.01039 25.6532 8.18272C25.8392 8.35319 25.9552 8.58647 25.9791 8.83739V13.9156C25.9516 19.3271 25.5115 23.1605 24.6417 25.7973Z" fill="#182C45" stroke="#182C45" stroke-width="0.4"/>
</svg>
