<svg width="25" height="25" viewBox="0 0 25 25" fill="none" xmlns="http://www.w3.org/2000/svg">
<path d="M12.5 7.8125C9.91699 7.8125 7.8125 9.91699 7.8125 12.5C7.8125 15.083 9.91699 17.1875 12.5 17.1875C15.083 17.1875 17.1875 15.083 17.1875 12.5C17.1875 9.91699 15.083 7.8125 12.5 7.8125ZM24.5312 11.7432L19.9072 9.43359L21.543 4.53125C21.7627 3.86719 21.1328 3.2373 20.4736 3.46191L15.5713 5.09766L13.2568 0.46875C12.9443 -0.15625 12.0557 -0.15625 11.7432 0.46875L9.43359 5.09277L4.52637 3.45703C3.8623 3.2373 3.23242 3.86719 3.45703 4.52637L5.09277 9.42871L0.46875 11.7432C-0.15625 12.0557 -0.15625 12.9443 0.46875 13.2568L5.09277 15.5664L3.45703 20.4736C3.2373 21.1377 3.86719 21.7676 4.52637 21.543L9.42871 19.9072L11.7383 24.5312C12.0508 25.1562 12.9395 25.1562 13.252 24.5312L15.5615 19.9072L20.4639 21.543C21.1279 21.7627 21.7578 21.1328 21.5332 20.4736L19.8975 15.5713L24.5215 13.2617C25.1563 12.9443 25.1562 12.0557 24.5312 11.7432ZM16.9189 16.9189C14.4824 19.3555 10.5176 19.3555 8.08105 16.9189C5.64453 14.4824 5.64453 10.5176 8.08105 8.08105C10.5176 5.64453 14.4824 5.64453 16.9189 8.08105C19.3555 10.5176 19.3555 14.4824 16.9189 16.9189Z" fill="white"/>
</svg>
