<svg width="33" height="33" viewBox="0 0 33 33" fill="none" xmlns="http://www.w3.org/2000/svg">
<path d="M0 0H33V33H0V0Z" fill="white" fill-opacity="0.01"/>
<path d="M24.0325 21.3125L21.3125 30.25H11.6875L8.96753 21.3125" stroke="#182C45" stroke-width="2.2" stroke-linecap="round" stroke-linejoin="round"/>
<path d="M8.96753 11.6875L11.6875 2.75H21.3125L24.0325 11.6875" stroke="#182C45" stroke-width="2.2" stroke-linecap="round" stroke-linejoin="round"/>
<path d="M16.5 11.6875V16.5L19.25 19.25" stroke="#182C45" stroke-width="2.2" stroke-linecap="round" stroke-linejoin="round"/>
<path d="M25.4375 16.5C25.4375 18.2719 24.9219 19.9233 24.0325 21.3125C22.4443 23.7932 19.6641 25.4375 16.5 25.4375C13.3359 25.4375 10.5557 23.7932 8.96748 21.3125C8.07813 19.9233 7.5625 18.2719 7.5625 16.5C7.5625 14.7281 8.07813 13.0767 8.96748 11.6875C10.5557 9.20679 13.3359 7.5625 16.5 7.5625C19.6641 7.5625 22.4443 9.20679 24.0325 11.6875C24.9219 13.0767 25.4375 14.7281 25.4375 16.5Z" stroke="#182C45" stroke-width="2.2" stroke-linecap="round" stroke-linejoin="round"/>
</svg>
